<svg xmlns="http://www.w3.org/2000/svg" viewBox="0 0 500 500"><g id="freepik--background-simple--inject-402"><path d="M333.65,96.54s-52.12-29.16-111.94-7-97.93,79.79-130,125.7-27.19,99,10.44,129.24,71.72.9,130.33,9.16,72.87,19.26,126.88-5.44,76-101,47.67-165.06S333.65,96.54,333.65,96.54Z" style="fill:#FFBD59"></path><path d="M333.65,96.54s-52.12-29.16-111.94-7-97.93,79.79-130,125.7-27.19,99,10.44,129.24,71.72.9,130.33,9.16,72.87,19.26,126.88-5.44,76-101,47.67-165.06S333.65,96.54,333.65,96.54Z" style="fill:#fff;opacity:0.8"></path><path d="M347.45,342.49c-3.32-2.74-8.26,1.12-10.24,3.9-1.66,2.3-3.83,5.89-4.34,6.73a1.7,1.7,0,0,0,0-.22l.11-.08a.39.39,0,0,1-.11.06,41.31,41.31,0,0,0-2.7-9.1c.84-.84,4.06-1.7,4.78-1.94,3-1,5.85-1.78,7.78-4.49,1.52-2.13,2.37-5.25-.43-6.76-3.79-2-7.88,2.7-9.3,5.81-1.11,2.44-2.45,6.09-2.88,7.26a57.24,57.24,0,0,0-3.77-7.26,21.56,21.56,0,0,1,3.95-2.86c2.63-1.74,5.2-3.22,6.37-6.32.92-2.46.95-5.69-2.14-6.43-4.19-1-6.93,4.63-7.5,8-.41,2.36-.74,5.7-.89,7.28-1.08-1.77-2.16-3.38-3.14-4.85s-2-2.92-2.67-4.15l.29-.11a.92.92,0,0,1-.34,0l0-.06c.67-1,3.67-2.43,4.34-2.8,2.75-1.55,5.42-2.83,6.81-5.84,1.1-2.39,1.37-5.6-1.66-6.57-4.11-1.31-7.25,4.11-8.07,7.42-.64,2.6-1.29,6.43-1.49,7.67-.12-.21-.23-.42-.33-.62a63.6,63.6,0,0,1-3.31-7.84l.31,0a.74.74,0,0,1-.34-.07c0-.1-.07-.19-.1-.29a21.2,21.2,0,0,1,3.42-3.43c2.31-2.14,4.61-4,5.27-7.27.51-2.57,0-5.76-3.15-6-4.3-.31-6.1,5.69-6.12,9.1,0,2.1.14,4.92.26,6.65-.59-1.78-1-3.27-1.26-4.25h0v0c-.13-.48-.22-.84-.27-1.05a28.1,28.1,0,0,1,.46-4.36c.4-3.13,1-6-.63-9-1.26-2.3-3.69-4.43-6.27-2.57-3.49,2.52-1,8.28,1.16,10.9,1.53,1.85,3.86,4.3,4.95,5.43.25,1,.81,3.13,1.72,5.8a27,27,0,0,1-3.22-3.17c-2.18-2.28-4.1-4.54-7.37-5.13-2.58-.47-5.76.09-5.93,3.26-.23,4.31,5.8,6,9.21,5.94,2.48,0,6-.32,7.46-.45a63.57,63.57,0,0,0,3.37,8c.08.15.16.31.25.46a25.81,25.81,0,0,1-3.95-2.3c-2.67-1.66-5.09-3.38-8.4-3.15-2.62.18-5.56,1.5-4.95,4.62.83,4.23,7.1,4.37,10.39,3.49,2.39-.64,5.69-1.78,7.12-2.28.72,1.26,1.66,2.67,2.72,4.25s2.26,3.37,3.44,5.32v0c-.93.32-4.14-2-4.85-2.43-2.68-1.66-5.09-3.38-8.4-3.15-2.62.18-5.57,1.5-4.95,4.62.83,4.23,7.09,4.37,10.39,3.49,3.08-.83,7.68-2.48,7.81-2.53v.15a.33.33,0,0,1,0-.13,55.73,55.73,0,0,1,3.65,7.08c-1.21.17-4.26-1-5-1.18-3-.91-5.8-1.94-8.94-.84-2.48.86-5,2.91-3.56,5.76,1.91,3.86,8,2.35,10.94.64,2.34-1.37,5.59-3.6,6.58-4.29a41,41,0,0,1,2.66,9c-1.31.05-4.11-1-4.8-1.19-3-.91-5.8-1.94-8.93-.84-2.48.86-5,2.91-3.56,5.76,1.91,3.86,8,2.35,10.94.64,2.2-1.29,5.21-3.34,6.39-4.15a38.23,38.23,0,0,1-.07,12.8l.42.07a38.66,38.66,0,0,0,.08-12.87c.82-.74,4.39-1,5.18-1.07,3.13-.41,6.09-.61,8.5-2.89C348.47,347.41,349.91,344.52,347.45,342.49Z" style="fill:#fff"></path><path d="M374.19,360.19c-3.3.3-5.41,2.38-7.79,4.45-.54.47-2.66,2.57-3.88,3.07a40.61,40.61,0,0,1-1.27-9.27c1.19.22,5.07.91,7.76,1.19,3.39.35,9.55-.79,9.7-5.09.12-3.18-3-4-5.62-3.78-3.3.29-5.41,2.38-7.79,4.45-.57.49-2.89,2.78-4.06,3.12a57.65,57.65,0,0,1,.41-7.95l.1.11-.08-.13c.14,0,5-.41,8.16-.92,3.37-.56,9-3.27,8-7.46-.72-3.1-3.95-3.09-6.41-2.18-3.11,1.16-4.6,3.72-6.36,6.34-.46.7-2.44,4.12-3.42,4.22v0c.27-2.27.62-4.37.94-6.27s.59-3.54.73-5c1.5-.13,5-.46,7.42-.86,3.37-.55,9-3.26,8-7.46-.73-3.1-4-3.08-6.42-2.17-3.11,1.15-4.6,3.71-6.35,6.34a26.14,26.14,0,0,1-2.65,3.72c0-.18,0-.35,0-.52a63.94,63.94,0,0,0-.23-8.68c1.42-.49,4.72-1.66,7-2.65,3.12-1.37,7.93-5.39,5.94-9.21-1.46-2.83-4.59-2-6.75-.53-2.73,1.88-3.55,4.73-4.6,7.71a26.44,26.44,0,0,1-1.62,4.22c-.28-2.81-.65-5-.83-6,.53-1.48,1.64-4.66,2.27-7,.91-3.29.79-9.56-3.43-10.41-3.12-.64-4.45,2.3-4.65,4.92-.25,3.31,1.46,5.73,3.11,8.42a28.33,28.33,0,0,1,2.22,3.79c0,.21.11.57.19,1.06,0,0,0,0,0,0h0c.17,1,.41,2.53.61,4.39-.61-1.62-1.63-4.26-2.51-6.16-1.43-3.1-5.54-7.82-9.32-5.77-2.8,1.53-1.93,4.64-.4,6.77,1.94,2.69,4.8,3.45,7.8,4.44a22,22,0,0,1,4.53,1.72l0,.31a.92.92,0,0,1-.28.2l.29-.1a63.24,63.24,0,0,1,.21,8.51c0,.22,0,.46,0,.7-.7-1.05-2.87-4.27-4.52-6.37-2.11-2.69-7.21-6.32-10.41-3.44-2.36,2.13-.8,4.95,1.19,6.67,2.51,2.17,5.47,2.24,8.62,2.51.76.07,4.09.14,5.1.76V339a.7.7,0,0,1-.33.12l.32,0c-.14,1.41-.41,3-.72,4.88s-.61,3.66-.87,5.71c-.79-1.37-2.47-4.27-3.81-6.26-1.9-2.83-6.73-6.83-10.13-4.19-2.51,2-1.15,4.88.7,6.74,2.35,2.35,5.3,2.63,8.41,3.13a21.36,21.36,0,0,1,4.78,1,56.11,56.11,0,0,0-.44,8.18c-.88-.9-3.61-3.67-5.62-5.44-2.57-2.24-8.26-4.88-10.87-1.45-1.93,2.53.13,5,2.4,6.33,2.87,1.67,5.79,1.19,8.93.88.76-.08,4-.62,5.16-.19a40.64,40.64,0,0,0,1.29,9.39H362l.12,0,.06.22c-.81-.56-4.27-2.93-6.72-4.35-3-1.71-9-3.19-10.94.68-1.41,2.86,1.1,4.89,3.58,5.75,3.14,1.08,5.91,0,8.93-.87.76-.23,4.12-1.5,5.16-1.16a38.93,38.93,0,0,0,5.38,11.7l.35-.24a38.34,38.34,0,0,1-5.33-11.64c1.4.25,5,.88,7.53,1.15,3.39.35,9.55-.79,9.71-5.1C379.93,360.79,376.81,360,374.19,360.19Z" style="fill:#fff"></path><path d="M421.63,256.48c-3,1.49-4.16,4.2-5.62,7-.33.64-1.53,3.37-2.47,4.28a40.8,40.8,0,0,1-4.6-8.15c1.19-.23,5.05-1,7.66-1.74,3.28-.93,8.59-4.25,7.15-8.31-1.06-3-4.27-2.63-6.61-1.45-3,1.49-4.17,4.2-5.62,7-.34.67-1.66,3.65-2.62,4.4a56.84,56.84,0,0,1-2.54-7.55l.13.07-.12-.09c.12-.06,4.52-2.22,7.25-3.86,2.93-1.75,7.18-6.35,4.73-9.89-1.82-2.61-4.81-1.41-6.77.34-2.47,2.22-2.91,5.15-3.58,8.23-.18.82-.75,4.73-1.63,5.18l0,0c-.58-2.2-1-4.29-1.43-6.17s-.75-3.51-1.16-4.91c1.36-.67,4.47-2.26,6.59-3.52,2.93-1.75,7.18-6.35,4.73-9.89-1.82-2.62-4.81-1.42-6.77.33-2.47,2.22-2.91,5.15-3.58,8.23a26.12,26.12,0,0,1-1.09,4.43l-.16-.49a63.37,63.37,0,0,0-3.4-8c1.14-1,3.78-3.29,5.52-5,2.41-2.42,5.4-7.93,2.15-10.75-2.4-2.09-5-.19-6.48,2-1.84,2.75-1.56,5.7-1.44,8.86a27.2,27.2,0,0,1,0,4.52c-1.29-2.51-2.44-4.42-3-5.27-.06-1.57-.19-4.95-.46-7.34-.37-3.39-2.78-9.17-7-8.42-3.13.56-3.29,3.79-2.51,6.29,1,3.17,3.46,4.8,6,6.69a28.12,28.12,0,0,1,3.45,2.71c.12.18.31.49.57.92v0c.53.87,1.31,2.21,2.18,3.87-1.16-1.29-3.08-3.37-4.59-4.81-2.47-2.36-8-5.25-10.79-1.94-2,2.44-.09,5,2.11,6.43,2.8,1.8,5.74,1.45,8.89,1.28a21.65,21.65,0,0,1,4.84-.07c.05.09.1.18.14.27a.7.7,0,0,1-.19.29l.24-.2a63.08,63.08,0,0,1,3.33,7.84q.1.31.21.66c-1-.71-4.23-2.91-6.54-4.26-2.95-1.72-9-3.23-10.95.63-1.41,2.85,1.08,4.9,3.56,5.76,3.13,1.1,5.92.07,8.94-.83.73-.22,3.85-1.37,5-1.16l0,.07a.78.78,0,0,1-.26.23l.29-.14c.39,1.37.73,3,1.12,4.81s.78,3.63,1.29,5.63c-1.23-1-3.86-3.07-5.84-4.42-2.81-1.94-8.77-3.88-11-.18-1.62,2.74.72,5,3.13,6,3,1.32,5.89.51,9-.18a21.5,21.5,0,0,1,4.8-.84,57.14,57.14,0,0,0,2.6,7.77c-1.14-.51-4.7-2.09-7.23-3-3.21-1.15-9.47-1.51-10.64,2.64-.86,3.06,2,4.61,4.56,5,3.28.49,5.83-1,8.63-2.47.68-.35,3.53-2.06,4.73-2.08a40.91,40.91,0,0,0,4.65,8.27.28.28,0,0,1-.12,0l.13,0,.13.18c-.95-.22-5-1.16-7.85-1.57-3.37-.51-9.58.35-9.92,4.65-.26,3.17,2.82,4.14,5.44,4,3.32-.15,5.52-2.14,8-4.1.62-.49,3.28-2.9,4.37-3a38.94,38.94,0,0,0,9.3,8.9l.24-.35a38.06,38.06,0,0,1-9.23-8.86c1.39-.28,5-1,7.42-1.7,3.29-.93,8.6-4.25,7.16-8.31C427.18,254.93,424,255.3,421.63,256.48Z" style="fill:#fff"></path><path d="M83.75,264.81c-2.6-2.06-5.57-2-8.72-2.15a20.7,20.7,0,0,1-4.92-.45,40.73,40.73,0,0,1,5.46-7.59c.72,1,3.05,4.15,4.81,6.21,2.21,2.59,7.46,6,10.54,3,2.27-2.22.59-5-1.47-6.61-2.6-2.06-5.56-2-8.71-2.15-.75,0-4,0-5.09-.53a55.22,55.22,0,0,1,5.78-5.48.61.61,0,0,1,0,.14l0-.15c.1.09,3.91,3.17,6.54,5,2.82,1.93,8.78,3.85,11,.14,1.61-2.75-.73-5-3.15-6-3-1.31-5.89-.48-9,.21-.82.18-4.61,1.3-5.38.69v0c1.76-1.46,3.46-2.74,5-3.89s2.87-2.16,4-3.11c1.18.94,3.93,3.1,6,4.49,2.82,1.92,8.78,3.85,11,.14,1.61-2.75-.74-5-3.15-6-3-1.31-5.9-.48-9,.21a25.91,25.91,0,0,1-4.48.87l.38-.35A63.71,63.71,0,0,0,97,235c1.38.62,4.57,2,6.9,2.89,3.2,1.17,9.46,1.56,10.65-2.57.89-3.06-1.93-4.63-4.52-5-3.28-.52-5.84,1-8.65,2.41a26.67,26.67,0,0,1-4.09,1.94c1.74-2.22,3-4.07,3.54-4.91,1.4-.71,4.4-2.25,6.46-3.49,2.93-1.77,7.16-6.38,4.69-9.91-1.82-2.61-4.81-1.4-6.76.36-2.46,2.22-2.9,5.16-3.55,8.24a28.23,28.23,0,0,1-1,4.27c-.11.18-.32.49-.59.9,0,0,0,0,0,0h0c-.56.85-1.45,2.12-2.59,3.6.68-1.6,1.76-4.21,2.44-6.19,1.1-3.23,1.38-9.49-2.78-10.6-3.07-.83-4.59,2-5,4.62-.45,3.29,1.1,5.81,2.58,8.6a21.54,21.54,0,0,1,2.1,4.37l-.19.24a.81.81,0,0,1-.34-.05l.28.13a64.11,64.11,0,0,1-5.71,6.31l-.52.47c.22-1.24.87-5.06,1.12-7.72.32-3.4-.87-9.55-5.17-9.67-3.18-.09-4,3-3.74,5.65.33,3.3,2.42,5.4,4.51,7.76.51.57,2.87,2.92,3.18,4.07l-.06.05a.79.79,0,0,1-.32-.13l.24.2c-1.07.93-2.4,1.92-3.89,3s-3,2.23-4.56,3.54c.38-1.54,1.16-4.8,1.56-7.16.57-3.37-.17-9.59-4.45-10-3.17-.32-4.2,2.74-4.14,5.36.08,3.32,2,5.56,3.93,8.07a21.79,21.79,0,0,1,2.79,4,58.15,58.15,0,0,0-6,5.62c0-1.25-.08-5.14-.33-7.81-.31-3.4-2.61-9.23-6.86-8.55-3.14.5-3.36,3.72-2.63,6.24.93,3.19,3.38,4.86,5.87,6.8.6.47,3.35,2.34,3.86,3.41a41.45,41.45,0,0,0-5.54,7.7l-.09-.09.08.11-.11.19c-.2-1-1.07-5.06-1.87-7.78-1-3.28-4.35-8.54-8.39-7.06-3,1.11-2.58,4.31-1.37,6.64,1.53,2.94,4.25,4.11,7.07,5.53.71.35,4,1.75,4.54,2.72a38.83,38.83,0,0,0-4.18,12.18l.42.07A38.23,38.23,0,0,1,70,262.4c.84,1.15,3,4.08,4.66,6,2.22,2.6,7.46,6,10.54,3C87.49,269.2,85.8,266.44,83.75,264.81Z" style="fill:#fff"></path><path d="M115.73,338.91c-3.44-1-6.37.29-9.56,1.45-.72.26-3.67,1.54-5.08,1.57a43.79,43.79,0,0,1,2.31-9.8c1.11.68,4.74,2.88,7.33,4.2,3.28,1.67,9.91,2.92,11.74-1.35,1.34-3.15-1.47-5.2-4.19-6-3.43-1-6.36.29-9.56,1.45-.76.27-4,1.68-5.28,1.57a59.85,59.85,0,0,1,3.5-7.84.42.42,0,0,1,0,.15l0-.16c.14,0,5.2,1.54,8.56,2.24,3.6.75,10.32.21,11-4.38.47-3.4-2.78-4.64-5.61-4.67-3.57-.05-6.07,1.94-8.84,3.9-.74.52-4.06,3.2-5.08,2.91v0c1.15-2.17,2.31-4.15,3.37-5.93s2-3.33,2.67-4.73c1.57.45,5.19,1.47,7.79,2,3.6.75,10.33.21,11-4.39.47-3.39-2.78-4.63-5.61-4.67-3.57-.05-6.07,1.95-8.84,3.9a27.79,27.79,0,0,1-4.1,2.72l.23-.51a69.48,69.48,0,0,0,3.14-8.81c1.62.06,5.39.16,8,0,3.67-.16,10.06-2.33,9.55-6.94-.38-3.41-3.83-3.81-6.58-3.15-3.48.83-5.4,3.38-7.62,6a28.38,28.38,0,0,1-3.27,3.61c.82-2.93,1.3-5.28,1.5-6.35,1.11-1.28,3.46-4.05,5-6.13,2.18-3,4.49-9.3.58-11.8-2.89-1.84-5.37.59-6.58,3.15-1.53,3.23-.76,6.32-.14,9.66a30.56,30.56,0,0,1,.76,4.67c0,.23-.12.62-.22,1.14l0,0h0c-.22,1.07-.58,2.71-1.1,4.65,0-1.87,0-4.91-.13-7.16-.23-3.67-2.53-10-7.13-9.42-3.4.45-3.73,3.91-3,6.65.9,3.46,3.49,5.33,6.11,7.49a23.62,23.62,0,0,1,3.89,3.49l-.09.31a1,1,0,0,1-.36.1h.33a67.3,67.3,0,0,1-3.09,8.63c-.1.23-.2.45-.32.69-.29-1.33-1.22-5.4-2.06-8.15-1.08-3.52-4.8-9.15-9.13-7.5-3.2,1.22-2.72,4.67-1.39,7.16,1.68,3.16,4.63,4.38,7.68,5.87.74.36,4.06,1.73,4.84,2.75l0,.07a.92.92,0,0,1-.37,0l.32.1c-.68,1.36-1.59,2.9-2.62,4.63s-2,3.44-3.09,5.4c-.25-1.68-.81-5.26-1.39-7.77-.82-3.59-4.11-9.47-8.55-8.14-3.29,1-3.06,4.46-1.91,7,1.44,3.27,4.3,4.7,7.23,6.41a23.43,23.43,0,0,1,4.42,2.84,62.47,62.47,0,0,0-3.62,8c-.53-1.23-2.19-5.08-3.54-7.63-1.7-3.26-6.39-8.11-10.35-5.68-2.92,1.79-1.81,5.08,0,7.29,2.23,2.79,5.36,3.45,8.63,4.35.79.22,4.3.94,5.26,1.8a44.45,44.45,0,0,0-2.35,9.95l-.12-.05.12.07,0,.24c-.6-.87-3.15-4.6-5.07-7-2.31-2.86-7.85-6.71-11.26-3.56-2.52,2.32-.79,5.34,1.37,7.17,2.74,2.3,5.93,2.34,9.32,2.59.85.06,4.71.09,5.63.83a41.64,41.64,0,0,0,.87,13.85l.44-.1a41.37,41.37,0,0,1-.84-13.77c1.31.8,4.67,2.82,7.12,4.07,3.28,1.67,9.91,2.92,11.73-1.35C121.26,341.74,118.45,339.69,115.73,338.91Z" style="fill:#fff"></path><path d="M154,357.44c-2.27-.65-4.22.19-6.34,1a14.81,14.81,0,0,1-3.37,1,29.87,29.87,0,0,1,1.53-6.5c.74.45,3.15,1.91,4.87,2.79,2.17,1.11,6.57,1.93,7.78-.9.9-2.09-1-3.45-2.77-4-2.28-.66-4.22.19-6.34,1a13.09,13.09,0,0,1-3.51,1,41.06,41.06,0,0,1,2.32-5.2.19.19,0,0,1,0,.1v-.11c.09,0,3.45,1,5.67,1.49,2.39.5,6.85.14,7.28-2.91.31-2.25-1.84-3.07-3.72-3.1-2.37,0-4,1.29-5.87,2.59-.49.35-2.68,2.12-3.36,1.93v0c.76-1.44,1.53-2.75,2.23-3.93s1.31-2.21,1.77-3.14c1,.3,3.44,1,5.17,1.34,2.39.5,6.85.14,7.27-2.91.32-2.25-1.84-3.07-3.71-3.1-2.37,0-4,1.3-5.87,2.59a17.94,17.94,0,0,1-2.72,1.8l.16-.34a45.06,45.06,0,0,0,2.08-5.84c1.07,0,3.57.11,5.34,0,2.43-.11,6.67-1.55,6.33-4.61-.25-2.26-2.54-2.52-4.36-2.09-2.31.56-3.59,2.25-5.05,4a18.82,18.82,0,0,1-2.17,2.39c.54-1.94.86-3.5,1-4.21.73-.85,2.29-2.69,3.31-4.07,1.45-2,3-6.16.39-7.82-1.91-1.22-3.56.39-4.36,2.09-1,2.14-.51,4.19-.1,6.41a19.67,19.67,0,0,1,.51,3.09l-.15.76v0h0c-.15.71-.38,1.79-.73,3.08,0-1.24,0-3.26-.08-4.75-.15-2.44-1.68-6.64-4.73-6.24-2.26.29-2.48,2.59-2,4.4.6,2.3,2.32,3.54,4.06,5a16.31,16.31,0,0,1,2.57,2.31l-.06.21a.45.45,0,0,1-.24.06h.22a44.32,44.32,0,0,1-2,5.73l-.21.45c-.2-.87-.81-3.58-1.37-5.4-.72-2.33-3.18-6.07-6.06-5-2.12.81-1.8,3.09-.92,4.75,1.11,2.09,3.07,2.9,5.1,3.89.49.24,2.69,1.14,3.2,1.82l0,.05a.52.52,0,0,1-.25,0l.22.06c-.46.91-1.06,1.93-1.74,3.08s-1.35,2.28-2.05,3.58c-.17-1.12-.54-3.49-.92-5.16-.55-2.37-2.73-6.28-5.68-5.39-2.18.65-2,3-1.26,4.67,1,2.17,2.85,3.12,4.8,4.25a15.46,15.46,0,0,1,2.93,1.88,40.06,40.06,0,0,0-2.4,5.34c-.35-.82-1.46-3.37-2.35-5.07-1.13-2.16-4.24-5.38-6.87-3.77-1.94,1.19-1.2,3.38,0,4.84,1.49,1.85,3.56,2.29,5.73,2.89.52.14,2.85.62,3.49,1.19a29.52,29.52,0,0,0-1.56,6.6l-.08,0,.08.05a1,1,0,0,0,0,.16c-.4-.58-2.09-3.05-3.36-4.63-1.53-1.89-5.21-4.45-7.47-2.36-1.67,1.54-.53,3.54.91,4.75,1.81,1.53,3.93,1.56,6.18,1.72.56,0,3.12.07,3.73.56a27.9,27.9,0,0,0,.58,9.18l.29-.07a27.55,27.55,0,0,1-.56-9.13c.87.53,3.1,1.87,4.73,2.7,2.17,1.11,6.57,1.94,7.78-.89C157.66,359.31,155.8,358,154,357.44Z" style="fill:#fff"></path><path d="M146.8,356.25c-2.14,1-3,3-4.09,4.94a14.42,14.42,0,0,1-1.82,3,29.46,29.46,0,0,1-3.19-5.87c.85-.16,3.62-.67,5.49-1.16,2.35-.63,6.18-2.94,5.2-5.86-.73-2.15-3-1.92-4.71-1.11-2.14,1-3,3-4.09,4.94a12.56,12.56,0,0,1-1.92,3.12,40.68,40.68,0,0,1-1.73-5.42l.09.05-.09-.07c.09,0,3.25-1.54,5.23-2.68s5.2-4.46,3.48-7c-1.27-1.89-3.42-1.07-4.84.17-1.78,1.55-2.14,3.64-2.64,5.84-.14.58-.6,3.37-1.23,3.68h0c-.39-1.58-.69-3.08-1-4.42s-.5-2.53-.77-3.53c1-.47,3.22-1.56,4.75-2.44,2.11-1.22,5.2-4.46,3.48-7-1.27-1.89-3.42-1.06-4.84.17-1.78,1.56-2.13,3.64-2.64,5.84a19.39,19.39,0,0,1-.83,3.15c0-.12-.07-.24-.11-.35a45.28,45.28,0,0,0-2.34-5.74c.82-.69,2.73-2.31,4-3.54,1.74-1.7,3.94-5.6,1.65-7.66-1.7-1.52-3.58-.19-4.65,1.35-1.35,1.95-1.18,4.06-1.13,6.32a18.37,18.37,0,0,1,0,3.23c-.89-1.81-1.69-3.18-2.06-3.8,0-1.12-.09-3.53-.25-5.24-.23-2.43-1.88-6.59-4.92-6.1-2.25.37-2.4,2.67-1.87,4.47.67,2.27,2.43,3.46,4.21,4.84a21,21,0,0,1,2.44,2l.39.67h0c.36.63.91,1.59,1.51,2.78-.82-.93-2.17-2.43-3.23-3.48-1.74-1.71-5.68-3.83-7.69-1.5-1.48,1.72-.12,3.58,1.44,4.62,2,1.31,4.09,1.09,6.34,1a15.34,15.34,0,0,1,3.46,0,1.74,1.74,0,0,0,.1.19.7.7,0,0,1-.14.21l.17-.14a44.77,44.77,0,0,1,2.29,5.63c.05.16.1.32.14.48-.73-.52-3-2.13-4.62-3.12-2.09-1.26-6.42-2.4-7.83.33-1,2,.72,3.52,2.48,4.16,2.23.82,4.23.12,6.4-.5.52-.14,2.76-.94,3.6-.77V345a.65.65,0,0,1-.18.16l.2-.09c.27,1,.5,2.14.76,3.44s.51,2.6.86,4c-.87-.72-2.73-2.24-4.13-3.23-2-1.41-6.22-2.86-7.83-.24-1.18,1.94.46,3.56,2.17,4.33,2.16,1,4.21.42,6.42,0a15.37,15.37,0,0,1,3.43-.55,41.86,41.86,0,0,0,1.77,5.57c-.81-.37-3.33-1.54-5.13-2.21-2.28-.85-6.74-1.18-7.63,1.77-.65,2.18,1.36,3.32,3.21,3.63,2.34.39,4.17-.67,6.19-1.67.49-.24,2.54-1.43,3.4-1.43a29.23,29.23,0,0,0,3.23,5.95l-.08,0h.09l.09.13c-.68-.17-3.59-.88-5.59-1.21-2.4-.4-6.85.15-7.14,3.21-.22,2.27,2,3,3.85,2.94,2.37-.07,4-1.46,5.75-2.83.45-.35,2.37-2,3.15-2.08a27.94,27.94,0,0,0,6.55,6.46l.18-.25a27.45,27.45,0,0,1-6.51-6.43c1-.19,3.56-.67,5.32-1.14,2.36-.62,6.19-2.94,5.21-5.85C150.78,355.2,148.48,355.43,146.8,356.25Z" style="fill:#fff"></path></g><g id="freepik--Floor--inject-402"><ellipse cx="244.22" cy="400.25" rx="123.78" ry="21.75" style="fill:#FFBD59"></ellipse><ellipse cx="244.22" cy="400.25" rx="123.78" ry="21.75" style="fill:#fff;opacity:0.5"></ellipse></g><g id="freepik--Characters--inject-402"><path d="M253.94,230s-9.74,35.7-10.82,50.84,0,32.09,1.44,36,13,60.94,13,60.94-5.76,7.57-7.93,10.81-9.37,8.66-9.73,10.82,8.65,1.08,13.34-.36,9.37-6.13,11.54-7.21,6.85-1.44,6.85-5.41-2.89-11.54-2.89-16.59S268,331,268,324.47s-5.41-15.5-5.41-15.5l11.18-38.22s1.8,42.91,4,49.76,8.66,50.48,8.66,58.05-.72,9.73-.72,9.73-8.3,11.18-11.54,15.14-6.85,5.41-4,7.94,19.83.72,23.8-10.1,5.41-25.6,6.85-34.25,4.33-20.55,2.88-31.37-6.85-17.3-5.76-22,9.73-59.85,9.73-68.51-2.16-12.61-2.16-12.61S279.18,240.83,253.94,230Z" style="fill:#fff;stroke:#263238;stroke-linecap:round;stroke-linejoin:round"></path><path d="M307.66,245.15c0-8.65-2.16-12.61-2.16-12.61s-26.32,8.29-51.56-2.53c0,0-9.74,35.7-10.82,50.84s0,32.09,1.44,36c1.1,3,8,36.39,11.25,52.43a17.31,17.31,0,0,0,12.91.44c0-5.45-.72-38.86-.72-45.3s-5.41-15.5-5.41-15.5l11.18-38.22s1.8,42.91,4,49.76,8.66,50.48,8.66,58.05c0,.47,0,.93,0,1.36a19.39,19.39,0,0,0,12.39.72c.81-5.13,1.43-9.93,2-13.62,1.44-8.65,4.33-20.55,2.88-31.37s-6.85-17.3-5.76-22S307.66,253.81,307.66,245.15Z" style="fill:#263238;stroke:#263238;stroke-linecap:round;stroke-linejoin:round"></path><path d="M254.66,221.36s-1.8,8.65-1.8,10.45,8.29,9.38,24.15,10.82,26.32-1.44,29.21-2.88.36-16.23.36-16.23-24.52,7.57-33.89,4.69A168.5,168.5,0,0,1,254.66,221.36Z" style="fill:#FFBD59;stroke:#263238;stroke-linecap:round;stroke-linejoin:round"></path><path d="M149.75,209.14S143.34,219,142.62,224s5.32,10.75,8.93,7.87,5.77-19.13,5.77-21.29S156.6,204.08,149.75,209.14Z" style="fill:#FFBD59;stroke:#263238;stroke-linecap:round;stroke-linejoin:round"></path><path d="M160.93,190s-6.49.73-7.58,3.61-5.77,14.79-6.13,17.68,7.22,3.61,7.22,3.61Z" style="fill:#FFBD59;stroke:#263238;stroke-linecap:round;stroke-linejoin:round"></path><path d="M184.74,161.87s-18.4,12.27-22.37,20.93-12.26,39.33-13.71,45.46,5.05,10.82,13,13.35,14.79,3.61,23.81-4,8.66-26,8.66-35-1.8-37.16-2.52-39.69S184.74,161.87,184.74,161.87Z" style="fill:#FFBD59;stroke:#263238;stroke-linecap:round;stroke-linejoin:round"></path><path d="M178.73,226.43s-3.84,19.59-3.07,35.33a216.52,216.52,0,0,1-1.15,34.57c-.77,8.06-3.84,19.2-3.84,31.87s6.53,42.63,6.53,46.47-3.46,19.2-3.46,25,2.3,15.74,10,12.29,3.84-20,3.84-30.72,2.3-28.81,4.22-42.25,3.07-36.86,3.84-39.94,6.14-26.11,6.53-30.72,5.76-18.81,5.76-18.81V286c0,14.21,1.92,23.42,1.92,33.79s-.77,19.59,0,28.8-.77,30.72-.77,37.25-.77,6.53,4.61,10,4.61,6.53,8.06,9.21,10,4.61,10.76-.76-7.3-19.59-9.22-23.43,3.84-33,5.76-43,3.07-33.41,1.92-41.86,10.75-41.86,10.37-53.76C241.33,242.18,203.31,242.56,178.73,226.43Z" style="fill:#fff;stroke:#263238;stroke-linecap:round;stroke-linejoin:round"></path><path d="M241.33,242.18s-38,.38-62.6-15.75c0,0-3.84,19.59-3.07,35.33a216.52,216.52,0,0,1-1.15,34.57c-.77,8.06-3.84,19.2-3.84,31.87,0,8.31,2.8,24,4.74,35,2.16,1.78,6.12,3.2,13.2,1.22.85-8.5,2.08-17.73,3.18-25.45,1.92-13.44,3.07-36.86,3.84-39.94s6.14-26.11,6.53-30.72,5.76-18.81,5.76-18.81V286c0,14.21,1.92,23.42,1.92,33.79s-.77,19.59,0,28.8c.21,2.56.25,6.05.19,9.91A25.05,25.05,0,0,0,225,360.15c1.4-8.6,3.17-17.63,4.08-22.35,1.92-10,3.07-33.41,1.92-41.86S241.71,254.08,241.33,242.18Z" style="fill:#263238;stroke:#263238;stroke-linecap:round;stroke-linejoin:round"></path><path d="M222.77,141.16s-17.53-.35-23.62,2.51-10.73,53.67-10.73,53.67l-10,30.77s21.47,15,33.28,16.11,30,.35,30,.35l1.43-34.35s12.89-39,15.75-49-4.65-13.6-12.17-16.46S222.77,141.16,222.77,141.16Z" style="fill:#fff;stroke:#263238;stroke-linecap:round;stroke-linejoin:round"></path><polygon points="205.41 177.57 193.88 223.73 231.71 236.07 243.52 188.84 205.41 177.57" style="fill:#FFBD59;stroke:#263238;stroke-linecap:round;stroke-linejoin:round"></polygon><polygon points="206.39 142.03 183.66 213.1 212.53 140.94 206.39 142.03" style="fill:#263238;stroke:#263238;stroke-linecap:round;stroke-linejoin:round"></polygon><path d="M201.66,140.09s-10.38,1.07-12.88,5-17.18,39.72-17.54,44.37,32.32,37.17,32.32,37.17l7-3.89s-10.37-17.18-12.52-23.62a47.79,47.79,0,0,0-6.89-12.43l10.11-27.65" style="fill:#fff;stroke:#263238;stroke-linecap:round;stroke-linejoin:round"></path><path d="M210.6,222.75s6.8-1.43,8.23-.72,9.31,7.52,9.31,7.52.71,1.43-1.79,1.43-7.88-2.87-7.88-2.87l5.37,11.45a3.46,3.46,0,0,1,0,2.87c-.71,1.43-3.58.71-5,.71s-5,.72-7.87-.71-7.4-15.79-7.4-15.79Z" style="fill:#fff;stroke:#263238;stroke-linecap:round;stroke-linejoin:round"></path><path d="M259.71,157.18c.35,2.15-4.65,36.49-4.65,43.2s-1.88,18.52-7,24.16S228,237.42,228,237.42L226.35,231s18-29.79,18.25-30.6,5.63-33,5.63-33" style="fill:#fff;stroke:#263238;stroke-linecap:round;stroke-linejoin:round"></path><path d="M217.76,230.44a48.84,48.84,0,0,1-6.44,2.42c-1.61.26-4.83,4.29-7.52,5.63s-2.14,3.49-.8,3.76,4.83-1.08,4.83-1.08-3.49,4.3-3.22,5.37,2.68,1.61,3.76,1.34,4.83.81,8.58.54,11-11,11-11l-1.34-7.25Z" style="fill:#fff;stroke:#263238;stroke-linecap:round;stroke-linejoin:round"></path><path d="M271.61,146.72s-9.74-1.08-14.79.73-8.65,25.59-6.13,32.81,3.25,22,1.09,31-.73,15.15,16.94,20.91,28.84,2.53,34.61-1.8S312,168.72,312,162.23s-20.19-13.7-27-14.78A71,71,0,0,0,271.61,146.72Z" style="fill:#FFBD59;stroke:#263238;stroke-linecap:round;stroke-linejoin:round"></path><path d="M285,147.45S268,185.3,268,188.55v7.57l22,37.14.36-5-19.11-33.89v-6.49l17.67-40Z" style="fill:#263238;stroke:#263238;stroke-linecap:round;stroke-linejoin:round"></path><path d="M301.89,185.66s-11.18,32.09-12.26,40.75,2.17,15.14,9.74,19.1,13.7,7.22,25.24,3.25,16.22-21.27,13.7-35S331.1,181,326.41,172s-10.82-11.17-15.87-7.21S301.89,185.66,301.89,185.66Z" style="fill:#fff;stroke:#263238;stroke-linecap:round;stroke-linejoin:round"></path><path d="M313.38,202.57S302.57,232.21,301,238.86s9.07,11.94,15.76,11.46" style="fill:none;stroke:#263238;stroke-linecap:round;stroke-linejoin:round"></path><path d="M338.21,228.83a38,38,0,0,0-12.89-7.16c-7.64-2.39-14.8-4.77-16.71-3.34s-2.87,7.64-2.87,7.64,11.94,1.91,18.15,4.3a56.43,56.43,0,0,1,11.46,6.2S337.26,235,338.21,228.83Z" style="fill:none;stroke:#263238;stroke-linecap:round;stroke-linejoin:round"></path><path d="M225.09,125.45s-23.79-2.88-31,.72,1.08,9.38,8.29,11.9a40.48,40.48,0,0,0,17.31,2.16C223.65,139.87,227.26,131.22,225.09,125.45Z" style="fill:#FFBD59;stroke:#263238;stroke-linecap:round;stroke-linejoin:round"></path><path d="M221.13,144.2s-.36,11.18,12.62,13.7,14.06-5.05,14.06-5.05l-1.44-18-11.54-5.05Z" style="fill:#fff;stroke:#263238;stroke-linecap:round;stroke-linejoin:round"></path><path d="M256.08,98s-3.94-4.28-14.76-3.19-16.95,20.55-19.11,26.68-8.29,23.43-7.93,26,9,2.16,13.34-4.33a71.76,71.76,0,0,0,7.21-13.34c2.16-4.69,10.46-17,10.46-17l2.16,17.67a61,61,0,0,0-5.77,19.11c-1.08,10.09,1.08,19.47-2.16,25.24s-4,9.37,3.6,8.29,15.87-16.22,16.59-26,1.44-17.67,1.8-29.56.36-21.28-1.44-24.52A19.74,19.74,0,0,0,256.08,98Z" style="fill:#263238;stroke:#263238;stroke-linecap:round;stroke-linejoin:round"></path><path d="M249.9,173.33a11.31,11.31,0,0,1-3.87,1.11" style="fill:none;stroke:#fff;stroke-linecap:round;stroke-linejoin:round;stroke-width:0.75px"></path><path d="M256.76,130.43s1.37,1.59.72,9.3.36,22.9-2.51,28.63a10.74,10.74,0,0,1-2.36,3.15" style="fill:none;stroke:#fff;stroke-linecap:round;stroke-linejoin:round;stroke-width:0.75px"></path><path d="M219.19,135.08s4.29-.71,8.23-5.37" style="fill:none;stroke:#fff;stroke-linecap:round;stroke-linejoin:round;stroke-width:0.75px"></path><path d="M248.17,97.51s3.58,3.2,2.87,5.72" style="fill:none;stroke:#fff;stroke-linecap:round;stroke-linejoin:round;stroke-width:0.75px"></path><path d="M272,94.45s-8.66-.73-12.26,5-.36,14.79-.36,28.13-.72,26.68-2.53,32.08,4.33,3.61,7.21-.72,5.41-11.53,6.85-13.7,9.74-5.41,9.74-5.41-.72,13.34,1.44,18,11.18,3.61,14.06,1.8a70.68,70.68,0,0,0,7.57-6.12s-4-1.81-4-12.26,1.8-28.85-3.25-39.3A17.23,17.23,0,0,0,272,94.45Z" style="fill:#263238;stroke:#263238;stroke-linecap:round;stroke-linejoin:round"></path><path d="M283.5,122.21a24.37,24.37,0,0,1,7.61,13.23c1.79,8.59-1.07,17.89,3.58,19.32" style="fill:none;stroke:#fff;stroke-linecap:round;stroke-linejoin:round;stroke-width:0.75px"></path><path d="M280.61,101.28a33.52,33.52,0,0,1,9.79,10.18c6.44,10.38,4.65,29,6.08,37.22s6.08,3.93,6.08,3.93" style="fill:none;stroke:#fff;stroke-linecap:round;stroke-linejoin:round;stroke-width:0.75px"></path><path d="M274.65,98.23a19.64,19.64,0,0,1,3.18,1.39" style="fill:none;stroke:#fff;stroke-linecap:round;stroke-linejoin:round;stroke-width:0.75px"></path><path d="M271.79,96.44s-3.65,3.65-4.51,6.3" style="fill:none;stroke:#fff;stroke-linecap:round;stroke-linejoin:round;stroke-width:0.75px"></path><path d="M266.92,137.35s1.8,7.57.72,12.62,3.24,9.37,6.85,6.13,5.77-9,6.13-13a52.74,52.74,0,0,1,1.44-7.93S268.72,138.79,266.92,137.35Z" style="fill:#fff;stroke:#263238;stroke-linecap:round;stroke-linejoin:round"></path><path d="M271.61,386.49a27.79,27.79,0,0,0-.92-5.67c-4.25,1.79-8.82,3.87-8.82,3.87a6.36,6.36,0,0,0-2.88-3.61,8.61,8.61,0,0,0-3.33-.75c-1.88,2.5-4.68,6.27-6,8.32-2.16,3.25-9.37,8.66-9.73,10.82s8.65,1.08,13.34-.36,9.37-6.13,11.54-7.21S271.61,390.46,271.61,386.49Z" style="fill:#FFBD59;stroke:#263238;stroke-linecap:round;stroke-linejoin:round"></path><path d="M294,401.27a80,80,0,0,0,2.83-10l-5,2.77s0-1.44-2.89-4.33a6.63,6.63,0,0,0-3.17-1.72,2.85,2.85,0,0,1-.07.28s-8.3,11.18-11.54,15.14-6.85,5.41-4,7.94S290,412.09,294,401.27Z" style="fill:#FFBD59;stroke:#263238;stroke-linecap:round;stroke-linejoin:round"></path><line x1="273.77" y1="270.75" x2="268.72" y2="258.86" style="fill:none;stroke:#fff;stroke-linecap:round;stroke-linejoin:round"></line><path d="M208.15,130.14s13.34,15.86,13.34,19.11S210,155,206.35,154.66s-15.51-14.79-17.67-19.47,3.24-7.57,6.85-8.3a42,42,0,0,1,7.21-.72" style="fill:#FFBD59;stroke:#263238;stroke-linecap:round;stroke-linejoin:round"></path><path d="M228.34,160.79s.94,3,1.2,4.42-.13,3.91.39,5.22-.39,4.17-2.47,2.08-1.7-4.95-1.18-6.78A40.34,40.34,0,0,1,228.34,160.79Z" style="fill:#fff;stroke:#263238;stroke-linecap:round;stroke-linejoin:round"></path><path d="M218.24,147.45s-7.21,0-9.37,1.8-.36,5.41-.36,5.41a33.84,33.84,0,0,0,1.74,5.2c1.87,3.47,3.91,3.79,3.91,3.79s.12,6.15,2.28,6.15,7.57.72,9.38,0,2.52-6.49,2.52-9S220.41,146.72,218.24,147.45Z" style="fill:#fff;stroke:#263238;stroke-linecap:round;stroke-linejoin:round"></path><line x1="218.97" y1="161.15" x2="218.24" y2="169.44" style="fill:none;stroke:#263238;stroke-linecap:round;stroke-linejoin:round"></line><line x1="223.15" y1="161.29" x2="221.7" y2="169.94" style="fill:none;stroke:#263238;stroke-linecap:round;stroke-linejoin:round"></line><path d="M226.34,161.83s-1,5.35-1.45,7.81" style="fill:none;stroke:#263238;stroke-linecap:round;stroke-linejoin:round"></path><path d="M183.73,411.92c-7.68,3.45-10-6.53-10-12.29s3.46-21.12,3.46-25a22.49,22.49,0,0,0-.25-2.38c2.18,1.64,6.29,3.76,10.89,1.4-.17,2.74-.27,5.28-.27,7.51C187.57,392,191.41,408.46,183.73,411.92Zm38-6.92c3.46,2.69,10,4.61,10.76-.76s-7.3-19.59-9.22-23.43c-.66-1.31-.42-5.58.26-11a13.75,13.75,0,0,1-13.83-.8c-.28,7-.64,13.68-.64,16.82,0,6.53-.77,6.53,4.61,10S218.29,402.32,221.74,405Z" style="fill:#263238;stroke:#263238;stroke-linecap:round;stroke-linejoin:round"></path><path d="M213.68,395.79c5.38,3.45,4.61,6.53,8.06,9.21s10,4.61,10.76-.76c0-.12,0-.27,0-.4-5.28,2.25-7.67.14-10.46-2.18-3.22-2.69-4.29-6.71-8.58-8.59s-4.4-7.27-4.4-7.27C209.07,392.33,208.3,392.33,213.68,395.79Z" style="fill:#fff;stroke:#263238;stroke-linecap:round;stroke-linejoin:round"></path><path d="M188.51,400.31c-1.08,3.05-2.85,7.14-5.91,8.32-3.24,1.27-6.48-1.58-8.26-3.59,1.1,4.86,3.84,9.37,9.39,6.88C187.34,410.29,188.4,405.77,188.51,400.31Z" style="fill:#fff;stroke:#263238;stroke-linecap:round;stroke-linejoin:round"></path><path d="M267.28,102.74s-6.13,4.68-6.85,7.57,0,17.31,1.08,20.91a16.86,16.86,0,0,0,7.82,9.83c5,2.93,12.73-5.86,12.73-5.86l1.44-13S267.28,107.79,267.28,102.74Z" style="fill:#fff;stroke:#263238;stroke-linecap:round;stroke-linejoin:round"></path><path d="M266.22,118.8c0,1-.44,1.75-1,1.75s-1-.78-1-1.75.44-1.74,1-1.74S266.22,117.84,266.22,118.8Z" style="fill:#263238"></path><path d="M275.37,118.8c0,1-.43,1.75-1,1.75s-1-.78-1-1.75.44-1.74,1-1.74S275.37,117.84,275.37,118.8Z" style="fill:#263238"></path><path d="M268.18,119.46a37.18,37.18,0,0,0-2.39,5c-.22,1.09,1.31,2.18,3.27,2" style="fill:none;stroke:#263238;stroke-linecap:round;stroke-linejoin:round"></path><path d="M263,114.45a3.36,3.36,0,0,1,4.14-.44" style="fill:none;stroke:#263238;stroke-linecap:round;stroke-linejoin:round"></path><path d="M270.58,114.23s3.49-2,5.88,1.09" style="fill:none;stroke:#263238;stroke-linecap:round;stroke-linejoin:round"></path><path d="M268.57,130.43s4.14,1.95,8-3.17" style="fill:none;stroke:#263238;stroke-linecap:round;stroke-linejoin:round"></path><path d="M250.33,105.76s-4.35-2-8.31,2.37-4,10.67-7.51,15-5.53,5.54-5.53,5.54.79,9.88,7.11,14.23,13.44-3.56,19.37-14.23C255.46,128.69,249.14,112.08,250.33,105.76Z" style="fill:#fff;stroke:#263238;stroke-linecap:round;stroke-linejoin:round"></path><path d="M249.07,123.85a29.5,29.5,0,0,0-2.75,5.85c-.45,2-3.58,1.34-3.81-.45" style="fill:none;stroke:#263238;stroke-linecap:round;stroke-linejoin:round"></path><path d="M237.14,128.58s.67,3.14,4.93,4.25" style="fill:none;stroke:#263238;stroke-linecap:round;stroke-linejoin:round"></path><path d="M241.17,116.5s2.69-2,5.15,1.12" style="fill:none;stroke:#263238;stroke-linecap:round;stroke-linejoin:round"></path><path d="M250.35,119.86s3.13-.45,4.92,4.25" style="fill:none;stroke:#263238;stroke-linecap:round;stroke-linejoin:round"></path><path d="M240.31,122.39s2.68-2,4.87,1.46" style="fill:none;stroke:#263238;stroke-linecap:round;stroke-linejoin:round"></path><path d="M249.57,126.29s2.43-1.22,2.92,2.19" style="fill:none;stroke:#263238;stroke-linecap:round;stroke-linejoin:round"></path><path d="M285.67,193.6s-9.38-6.13-11.54-6.85a27.3,27.3,0,0,0-9.37-.73,2.16,2.16,0,0,0-1.81,2.53l.72,1.44s-1.44,4.69,1.45,7.21,12.25,2.53,12.25,2.53l5.77,2.88Z" style="fill:#fff;stroke:#263238;stroke-linecap:round;stroke-linejoin:round"></path><line x1="292.67" y1="183.1" x2="299.31" y2="185.18" style="fill:none;stroke:#263238;stroke-linecap:round;stroke-linejoin:round"></line><path d="M296.12,178.45l7.93,17.31s-9.73-.72-14.06-2.52-7.57.36-7.93,2.88-1.8,9.73,1.08,11.18,16.95,4.32,27.4,6.13,16.59-1.81,17.31-5.41-9.73-34.25-12.62-40.74-7.21-11.9-11.9-11.9" style="fill:#FFBD59;stroke:#263238;stroke-linecap:round;stroke-linejoin:round"></path><path d="M304.05,195.76s5.88-.95,12.66,4" style="fill:none;stroke:#263238;stroke-linecap:round;stroke-linejoin:round"></path></g></svg>